<svg width="375" height="192" viewBox="0 0 375 192" fill="none" xmlns="http://www.w3.org/2000/svg">
<g clip-path="url(#clip0_484_11450)">
<rect width="375" height="192" rx="5" fill="#378400"/>
<path d="M343.535 241.685C348.436 228.63 345.817 212.631 338.698 198.026C330.252 180.697 315.583 166.187 299.346 155.064C281.818 143.056 262.676 134.837 243.576 127.505C224.842 120.312 206.052 113.626 187.629 104.991C150.862 87.7397 115.998 64.9851 84.5448 37.7106C56.2419 13.154 28.9005 -16.2807 16.5415 -50.2341C5.21731 -81.3447 8.50451 -112.564 19.1258 -138.523C20.4856 -141.846 21.9671 -145.097 23.5703 -148.276C24.0313 -149.197 25.7332 -148.212 25.2709 -147.289C12.4725 -121.744 6.45369 -90.429 15.717 -58.2023C25.736 -23.3471 52.7465 7.30875 81.1349 32.6081C112.565 60.5801 147.582 83.9862 184.628 101.784C203.382 110.795 222.524 117.727 241.66 125.019C260.375 132.151 279.157 139.983 296.553 151.292C312.437 161.619 327.323 174.985 336.875 191.216C344.74 204.581 349.231 219.684 347.565 233.198C347.149 236.503 346.369 239.678 345.235 242.672C344.868 243.651 343.169 242.66 343.535 241.685Z" fill="#E6EA47" fill-opacity="0.5"/>
<path d="M409.304 253.209C409.672 239.432 401.442 224.661 389.169 212.337C374.608 197.714 354.77 187.331 334.537 180.597C312.695 173.327 290.554 170.101 268.765 167.72C247.393 165.384 226.142 163.549 204.579 159.747C161.538 152.142 118.49 138.768 77.2932 120.204C40.2181 103.487 2.40508 81.8338 -21.9075 52.1549C-44.1845 24.961 -51.7923 -5.91971 -50.1785 -33.5306C-49.9719 -37.0655 -49.6176 -40.5607 -49.1155 -44.0162C-48.9733 -45.0157 -46.9159 -44.4846 -47.0586 -43.4824C-51.0083 -15.736 -46.1165 15.9066 -25.5237 44.681C-3.25116 75.8022 34.6558 98.7126 72.0768 116.125C113.494 135.366 156.925 149.33 200.437 157.393C222.465 161.476 244.156 163.461 265.967 165.795C287.299 168.078 308.943 171.018 330.407 177.648C350.006 183.703 369.663 192.929 384.953 206.223C397.543 217.17 407.345 230.619 410.393 244.045C411.131 247.331 411.455 250.581 411.361 253.743C411.333 254.777 409.277 254.238 409.304 253.209Z" fill="#E6EA47" fill-opacity="0.5"/>
<path d="M241.2 62.107H237.078L239.135 69.8336C239.135 69.8336 235.531 68.8049 232.445 74.4666C229.36 80.1282 226.784 98.1494 226.784 98.1494C226.784 98.1494 224.727 113.077 226.784 123.379C228.842 133.681 233.474 147.108 236.049 150.171C238.624 153.234 246.342 144.486 250.464 144.486C254.586 144.486 265.908 145.515 265.908 145.515L273.634 147.572L287.531 141.911L282.381 120.285L279.805 111.53L287.531 117.192L291.653 108.955L298.861 101.746L305.04 97.6236C305.04 97.6236 299.889 97.1055 291.142 89.3864C282.396 81.6674 277.245 71.8834 277.245 71.8834L265.459 67.2505L241.207 62.0994L241.2 62.107Z" fill="#FDFDFD"/>
<path d="M244.24 50.3875V58.0684C244.24 58.0684 244.057 61.2993 245.329 64.332C246.601 67.3648 248.59 71.3957 249.314 72.5083C250.038 73.6208 256.194 74.4361 257.283 73.8265C258.373 73.2169 262.502 70.8852 263.981 68.7745C265.459 66.6637 266.693 62.2061 266.693 62.2061L267.958 53.8165L244.24 50.3799V50.3875Z" fill="#FCC491"/>
<path d="M242.595 46.0288L245.612 51.0808C245.612 51.0808 256.294 55.0966 267.6 53.6869L271.608 49.633L242.602 46.0288H242.595Z" fill="#2B3990"/>
<path d="M242.61 46.3336C242.335 44.7563 242.183 42.3484 243.15 39.8185C245.49 33.7302 252.827 30.8575 258.724 31.1242C259.265 31.147 269.855 31.7871 272.667 39.8185C274.282 44.4362 272.354 48.7491 271.76 49.9607C262.046 48.7568 252.331 47.5452 242.61 46.3412V46.3336Z" fill="#1C75BC"/>
<path d="M240.918 149.569C237.665 153.364 233.893 159.056 233.193 166.386C232.728 171.217 233.924 173.427 234.282 180.148C234.633 186.754 233.84 191.372 232.469 199.342C230.29 212.022 229.017 218.903 223.417 225.052C221.954 226.66 220.111 228.123 219.433 228.672C213.772 233.32 209.132 235.194 206.396 236.642C202.396 238.76 198.419 243.851 190.465 254.023C186.968 258.496 182.427 264.592 177.429 272.128C177.627 272.502 180.895 278.537 187.57 279.009C190.015 279.184 192.103 278.11 196.263 276.114C200.507 274.079 203.44 272.06 203.867 271.77C223.745 258.1 223.242 258.473 224.865 257.285C239.836 246.358 239.295 246.777 239.714 246.419C244.819 242.007 248.873 237.45 259.631 222.157C265.985 213.119 274.183 204.966 278.099 194.633C278.434 193.749 279.318 191.303 281.36 190.648C284.537 189.635 288.05 193.765 291.859 196.805C292.652 197.437 300.56 202.947 310.686 204.775C316.004 205.736 319.311 205.195 325.17 207.671C327.547 208.677 329.391 209.774 330.602 210.567C328.324 216.678 328.69 221.044 329.513 223.963C330.335 226.889 331.593 228.291 333.497 233.739C334.541 236.726 335.097 238.981 335.669 241.344C338.206 251.775 340.697 262.619 341.459 265.971C347.25 266.451 353.048 266.939 358.838 267.419C359.082 260.538 359.318 253.658 359.562 246.777C358.953 226.774 356.629 217.676 356.301 212.738C356.08 211.481 356.278 207.229 356.438 202.375C356.591 197.643 356.111 196.782 355.577 193.909C354.8 189.711 350.892 187.76 345.078 183.767C340.735 180.788 338.008 179.249 338.008 179.249C338.008 179.249 332.286 175.5 329.238 173.351C325.116 170.448 309.246 157.6 286.069 142.505C281.573 145.545 277.703 146.574 275.105 146.97C264.301 148.624 257.939 142.063 248.652 144.898C244.994 146.018 242.412 148.121 240.911 149.561L240.918 149.569Z" fill="#FDFDFD"/>
<path d="M264.294 69.0488C264.888 69.3459 263.806 71.0757 264.111 73.9027C264.454 77.1259 266.29 78.9166 265.741 79.3433C265.01 79.9072 261.421 77.065 259.09 76.4325C257.787 76.0744 256.423 75.8534 256.423 75.8534C256.4 75.8534 256.172 75.8153 255.92 75.7772C252.781 75.3124 250.275 75.5562 249.856 74.6647C249.757 74.4513 249.749 74.1008 250.153 73.5064C251.654 74.177 254.069 74.9847 256.629 74.3675C261.086 73.3007 263.334 68.5611 264.294 69.0488Z" fill="#C49A6C"/>
<path d="M330.823 53.5267C330.594 53.1838 330.221 52.5285 330.107 51.6294C329.939 50.2959 330.449 49.2748 330.648 48.9167C318.198 26.3311 305.756 3.73791 293.307 -18.8477C292.484 -17.7885 291.349 -16.0207 290.998 -13.6585C290.701 -11.6544 291.089 -10.0695 291.272 -9.34556C294.32 3.0445 294.328 4.8428 295.478 7.89841C298.335 15.4879 309.528 34.2787 328.522 56.3385C329.284 55.4013 330.053 54.464 330.815 53.5191L330.823 53.5267Z" fill="#FFE98F"/>
<path d="M330.648 48.9167H333.566L317.025 18.7493L297.65 -18.8476L293.817 -19.5715L330.648 48.9167Z" fill="#FFE98F"/>
<path d="M333.566 50.6694L330.229 53.6488L328.202 56.9178L352.575 98.4009L355.92 96.5111L356.758 91.6496L333.566 50.6694Z" fill="#1C75BC"/>
<path d="M266.114 68.2259C265.664 69.1479 265.055 70.6719 264.872 72.6302C264.796 73.4608 264.301 78.5357 267.28 80.9436C268.072 81.5837 269.543 81.8504 272.468 82.338C277.207 83.1381 277.969 82.6657 281.245 83.4887C284.003 84.1897 285.184 84.9593 285.489 84.5555C285.916 83.984 282.922 82.2237 280.232 77.8956C278.807 75.6096 278.792 74.741 277.482 73.5675C275.661 71.9444 273.367 71.5482 271.714 71.4644L266.129 68.2183L266.114 68.2259Z" fill="#E6E7E8"/>
<path d="M287.531 141.911C280.316 131.784 273.093 121.649 265.878 111.522C259.63 110.798 253.383 110.074 247.143 109.351C245.878 105.731 244.606 102.112 243.341 98.4845C252.392 97.0367 261.444 95.5889 270.495 94.1411C273.207 100.298 275.927 106.455 278.64 112.612C281.604 122.381 284.567 132.149 287.531 141.918V141.911Z" fill="#E6E7E8"/>
<path d="M248.407 74.9771C248.407 74.9771 241.2 77.0344 240.171 86.3003C239.142 95.5662 240.171 102.279 240.171 102.279C240.171 102.279 254.906 104.047 259.714 104.184C264.521 104.322 275.79 101.472 275.79 101.472C275.79 101.472 279.592 95.2233 280.681 92.0991C281.771 88.9749 282.716 84.4944 282.716 84.0905C282.716 83.6867 274.708 82.8713 271.31 82.4598C267.912 82.0484 262.076 78.9318 260.445 77.8422C258.815 76.7525 248.407 74.9847 248.407 74.9847V74.9771Z" fill="#FDFDFD"/>
<path d="M291.866 190.823L312.841 187.112L331.325 187.128L307.744 190.328L291.866 190.823Z" fill="#E6E7E8"/>
<path d="M289.337 191.646L304.476 183.554L318.465 178.875L301.253 187.25L289.337 191.646Z" fill="#E6E7E8"/>
<path d="M290.267 191.357L299.615 182.251L309.055 175.888L298.19 185.634L290.267 191.357Z" fill="#E6E7E8"/>
<path d="M289.337 191.357L295.943 178.273L303.371 168.162L295.47 182.449L289.337 191.357Z" fill="#E6E7E8"/>
<path d="M244.515 50.5933C250.915 56.7045 257.315 62.8157 263.722 68.9269C264.56 67.4029 265.505 65.3531 266.198 62.8157C267.12 59.4477 267.25 56.4911 267.181 54.4109C264.378 54.7538 260.644 54.9138 256.317 54.2661C251.318 53.5193 247.303 51.9496 244.515 50.5933Z" fill="#C49A6C"/>
<path d="M277.84 104.588L286.922 114.776L290.891 107.042L299.958 99.1628L290.891 100.687L281.086 99.9782L277.84 104.588Z" fill="#E6E7E8"/>
<g filter="url(#filter0_d_484_11450)">
<path d="M307.684 28.7163C308.697 27.9162 309.71 27.1084 310.716 26.3083C316.484 34.8656 322.251 43.4228 328.019 51.9876C327.486 52.3305 326.945 52.6734 326.411 53.0163C320.171 44.9163 313.931 36.8239 307.684 28.7239V28.7163Z" fill="#EF4136"/>
</g>
<path d="M278.099 148.456C277.268 147.931 273.764 156.252 263.981 162.309C253.809 168.604 244.339 167.834 244.43 168.825C244.529 169.945 256.689 172.665 266.427 166.653C275.95 160.77 279.051 149.058 278.107 148.456H278.099Z" fill="#D1D3D4"/>
<path d="M269.314 155.49C268.766 155.368 266.655 158.027 260.392 160.298C253.893 162.652 247.691 162.858 247.775 163.155C247.859 163.491 255.859 163.75 262.084 161.494C268.179 159.284 269.947 155.627 269.322 155.49H269.314Z" fill="#D1D3D4"/>
<g filter="url(#filter1_d_484_11450)">
<path d="M243.79 106.066C241.863 109.869 239.828 114.616 238.213 120.24C236.857 124.964 236.08 129.3 235.646 133.026" fill="#D1D3D4"/>
</g>
<path d="M242.594 104.588L232.476 106.973L230.571 114.776" fill="#D1D3D4"/>
<path d="M270.495 94.1411L257.101 99.1627L244.423 96.6481L258.602 97.0215L270.495 94.1411Z" fill="#D1D3D4"/>
<path d="M282.351 86.0869L286.907 86.9328C286.907 86.9328 293.589 85.5536 294.922 84.9973C296.256 84.441 299.981 82.2465 303.029 81.6064C306.077 80.9663 308.827 80.7149 308.827 80.7149L320.774 75.3428L326.884 69.163L327.021 62.7775L329.536 57.3445L336.187 51.7743C336.187 51.7743 340.454 50.5703 341.185 51.2866C341.917 52.0029 342.13 52.8868 342.907 53.5421C343.684 54.1974 344.461 54.2584 344.697 55.4166C344.934 56.5748 345.162 57.1311 345.901 57.6493C346.64 58.1674 346.465 57.5731 347.029 58.8227C347.593 60.0724 348.819 60.7049 348.842 61.383C348.865 62.0612 348.24 63.1204 348.842 63.9281C349.444 64.7358 350.435 65.1244 349.574 65.9703C348.713 66.8161 348.187 67.7914 346.991 68.0962C345.795 68.401 343.867 68.683 343.128 69.2164C342.389 69.7498 336.751 76.4248 336.751 76.4248L330.023 83.0542L316.377 92.1067L301.894 99.0333L289.947 100.405L277.475 99.2314L282.351 86.0793V86.0869Z" fill="#FCC491"/>
<path d="M353.215 72.8662C353.467 72.7519 354.069 72.5386 354.671 72.7595C355.585 73.0948 356.187 74.2911 355.935 75.6627C353.878 76.661 352.248 77.5982 351.075 78.3145C349.299 79.3965 348.256 80.1661 347.463 79.7623C346.808 79.427 346.633 78.4364 346.587 77.6668C348.796 76.0666 351.006 74.4664 353.208 72.8586L353.215 72.8662Z" fill="#FCC491"/>
<path d="M356.004 75.2437C356.301 75.137 357.002 74.9389 357.649 75.2741C358.624 75.7771 359.12 77.2934 358.647 78.9241C356.202 79.9147 354.244 80.8672 352.826 81.6063C350.693 82.7188 349.405 83.5418 348.583 82.9627C347.897 82.4826 347.844 81.271 347.912 80.3338C350.609 78.6345 353.314 76.9353 356.011 75.236L356.004 75.2437Z" fill="#FCC491"/>
<path d="M358.709 82.6199C358.953 82.5971 359.517 82.5666 360.012 82.8942C360.743 83.3819 361.04 84.4792 360.553 85.5003C358.557 85.7898 356.941 86.1327 355.768 86.4147C354 86.8338 352.934 87.1919 352.317 86.6737C351.806 86.247 351.844 85.4241 351.959 84.8068C354.206 84.0829 356.454 83.3514 358.709 82.6275V82.6199Z" fill="#FCC491"/>
<path d="M357.825 79.1831C358.099 79.1298 358.732 79.0384 359.311 79.3584C360.179 79.8385 360.606 81.0729 360.149 82.3073C357.924 82.856 356.126 83.4275 354.838 83.877C352.888 84.5552 351.715 85.081 350.976 84.5552C350.366 84.1209 350.336 83.1684 350.412 82.4369C352.88 81.3548 355.357 80.2728 357.825 79.1831Z" fill="#FCC491"/>
<path d="M240.347 68.2258L245.604 70.6871L248.225 74.0399L243.791 72.6835L240.347 68.2258Z" fill="#E6E7E8"/>
<path d="M360.004 85.5764L354.221 86.7804L356.339 90.9104L358.48 88.5253" fill="#FCC491"/>
<path d="M340.286 51.4314H340.789L341.376 52.4449" fill="#C49A6C"/>
<path d="M342.48 54.0754L343.867 54.7536L344.317 56.0642" fill="#C49A6C"/>
<path d="M345.132 57.7864L346.259 58.2893L346.595 59.2342" fill="#C49A6C"/>
<path d="M347.211 60.1409L348.118 60.9105V62.0916" fill="#C49A6C"/>
<path d="M348.75 64.6672L349.291 65.3911L349.024 66.2979" fill="#C49A6C"/>
<path d="M347.668 77.7051L347.211 78.6576L348.118 79.1224" fill="#C49A6C"/>
<path d="M348.75 80.8826L348.301 81.8351L349.207 82.3075" fill="#C49A6C"/>
<path d="M351.295 82.9019L350.846 83.8544L351.745 84.3268" fill="#C49A6C"/>
<path d="M352.903 85.2107L352.453 86.1632L353.36 86.6356" fill="#C49A6C"/>
<path d="M292.857 106.973L304.4 112.879C304.4 112.879 307.28 113.603 309.665 112.879C312.05 112.155 316.355 111.248 316.355 111.248C316.355 111.248 328.088 108.353 329.924 107.537C331.76 106.722 339.181 102.737 339.181 102.737L350.32 95.2234L343.25 83.161C343.25 83.161 347.356 76.4706 351.25 74.2609C355.143 72.0511 355.372 69.2469 355.372 69.2469C355.372 69.2469 354.755 67.1667 353.345 67.7991C351.936 68.4316 348.217 71.3272 348.217 71.3272L345.01 73.4074L340.652 79.13C340.652 79.13 339.181 85.9651 339.181 86.9328C339.181 87.9006 336.888 90.4456 336.888 90.4456C336.888 90.4456 330.016 94.8728 328.271 95.0557C326.526 95.2386 319.014 96.595 319.014 96.595C319.014 96.595 307.014 96.313 306.381 96.6102C305.749 96.9074 298.145 101.761 298.145 101.761L293.528 106.981" fill="#FCC491"/>
<path d="M354.221 69.5136L354 68.2258L352.903 68.4239L354.221 69.5136Z" fill="#A97C50"/>
<path d="M295.021 108.078H305.04L310.853 110.798L316.346 111.248L307.683 113.191L302.449 111.88L296.354 108.764" fill="#C49A6C"/>
<path d="M236.583 150.605L244.514 146.78L256.095 144.365L265.848 146.612L277.474 146.49L282.716 144.486L286.076 142.505L287.532 141.911L280.636 144.113L274.297 145.378L263.44 145.302L261.215 145.119L253.657 146.262L245.33 148.434L236.583 150.605Z" fill="#E6E7E8"/>
<path d="M319.646 96.6481C319.646 96.6481 321.589 100.877 318.968 106.066L316.347 111.248L323.699 109.366C323.699 109.366 329.497 99.4751 328.88 97.2577L328.263 95.0403L319.646 96.6481Z" fill="#A97C50"/>
<ellipse cx="200.128" cy="142.051" rx="7.5665" ry="7.58599" fill="#A72608"/>
<path d="M196.766 148.794C198.447 148.794 200.129 147.951 200.969 146.265C201.81 144.579 202.651 142.894 202.651 140.365C202.651 138.342 201.53 135.589 200.969 134.465" stroke="#FFFBFB"/>
<path d="M35.4141 40.3398H38.918C38.8477 41.4883 38.5312 42.5078 37.9688 43.3984C37.4141 44.2891 36.6367 44.9844 35.6367 45.4844C34.6445 45.9844 33.4492 46.2344 32.0508 46.2344C30.957 46.2344 29.9766 46.0469 29.1094 45.6719C28.2422 45.2891 27.5 44.7422 26.8828 44.0312C26.2734 43.3203 25.8086 42.4609 25.4883 41.4531C25.168 40.4453 25.0078 39.3164 25.0078 38.0664V36.8828C25.0078 35.6328 25.1719 34.5039 25.5 33.4961C25.8359 32.4805 26.3125 31.6172 26.9297 30.9062C27.5547 30.1953 28.3008 29.6484 29.168 29.2656C30.0352 28.8828 31.0039 28.6914 32.0742 28.6914C33.4961 28.6914 34.6953 28.9492 35.6719 29.4648C36.6562 29.9805 37.418 30.6914 37.957 31.5977C38.5039 32.5039 38.832 33.5352 38.9414 34.6914H35.4258C35.3867 34.0039 35.25 33.4219 35.0156 32.9453C34.7812 32.4609 34.4258 32.0977 33.9492 31.8555C33.4805 31.6055 32.8555 31.4805 32.0742 31.4805C31.4883 31.4805 30.9766 31.5898 30.5391 31.8086C30.1016 32.0273 29.7344 32.3594 29.4375 32.8047C29.1406 33.25 28.918 33.8125 28.7695 34.4922C28.6289 35.1641 28.5586 35.9531 28.5586 36.8594V38.0664C28.5586 38.9492 28.625 39.7266 28.7578 40.3984C28.8906 41.0625 29.0938 41.625 29.3672 42.0859C29.6484 42.5391 30.0078 42.8828 30.4453 43.1172C30.8906 43.3438 31.4258 43.457 32.0508 43.457C32.7852 43.457 33.3906 43.3398 33.8672 43.1055C34.3438 42.8711 34.707 42.5234 34.957 42.0625C35.2148 41.6016 35.3672 41.0273 35.4141 40.3398ZM44.3906 36.0859V46H41.0156V33.3203H44.1914L44.3906 36.0859ZM48.2109 33.2383L48.1523 36.3672C47.9883 36.3438 47.7891 36.3242 47.5547 36.3086C47.3281 36.2852 47.1211 36.2734 46.9336 36.2734C46.457 36.2734 46.043 36.3359 45.6914 36.4609C45.3477 36.5781 45.0586 36.7539 44.8242 36.9883C44.5977 37.2227 44.4258 37.5078 44.3086 37.8438C44.1992 38.1797 44.1367 38.5625 44.1211 38.9922L43.4414 38.7812C43.4414 37.9609 43.5234 37.207 43.6875 36.5195C43.8516 35.8242 44.0898 35.2188 44.4023 34.7031C44.7227 34.1875 45.1133 33.7891 45.5742 33.5078C46.0352 33.2266 46.5625 33.0859 47.1562 33.0859C47.3438 33.0859 47.5352 33.1016 47.7305 33.1328C47.9258 33.1562 48.0859 33.1914 48.2109 33.2383ZM53.3672 33.3203V46H49.9805V33.3203H53.3672ZM49.7695 30.0156C49.7695 29.5234 49.9414 29.1172 50.2852 28.7969C50.6289 28.4766 51.0898 28.3164 51.668 28.3164C52.2383 28.3164 52.6953 28.4766 53.0391 28.7969C53.3906 29.1172 53.5664 29.5234 53.5664 30.0156C53.5664 30.5078 53.3906 30.9141 53.0391 31.2344C52.6953 31.5547 52.2383 31.7148 51.668 31.7148C51.0898 31.7148 50.6289 31.5547 50.2852 31.2344C49.9414 30.9141 49.7695 30.5078 49.7695 30.0156ZM61.3945 43.5977C61.8086 43.5977 62.1758 43.5195 62.4961 43.3633C62.8164 43.1992 63.0664 42.9727 63.2461 42.6836C63.4336 42.3867 63.5312 42.0391 63.5391 41.6406H66.7148C66.707 42.5312 66.4688 43.3242 66 44.0195C65.5312 44.707 64.9023 45.25 64.1133 45.6484C63.3242 46.0391 62.4414 46.2344 61.4648 46.2344C60.4805 46.2344 59.6211 46.0703 58.8867 45.7422C58.1602 45.4141 57.5547 44.9609 57.0703 44.3828C56.5859 43.7969 56.2227 43.1172 55.9805 42.3438C55.7383 41.5625 55.6172 40.7266 55.6172 39.8359V39.4961C55.6172 38.5977 55.7383 37.7617 55.9805 36.9883C56.2227 36.207 56.5859 35.5273 57.0703 34.9492C57.5547 34.3633 58.1602 33.9062 58.8867 33.5781C59.6133 33.25 60.4648 33.0859 61.4414 33.0859C62.4805 33.0859 63.3906 33.2852 64.1719 33.6836C64.9609 34.082 65.5781 34.6523 66.0234 35.3945C66.4766 36.1289 66.707 37 66.7148 38.0078H63.5391C63.5312 37.5859 63.4414 37.2031 63.2695 36.8594C63.1055 36.5156 62.8633 36.2422 62.543 36.0391C62.2305 35.8281 61.8438 35.7227 61.3828 35.7227C60.8906 35.7227 60.4883 35.8281 60.1758 36.0391C59.8633 36.2422 59.6211 36.5234 59.4492 36.8828C59.2773 37.2344 59.1562 37.6367 59.0859 38.0898C59.0234 38.5352 58.9922 39.0039 58.9922 39.4961V39.8359C58.9922 40.3281 59.0234 40.8008 59.0859 41.2539C59.1484 41.707 59.2656 42.1094 59.4375 42.4609C59.6172 42.8125 59.8633 43.0898 60.1758 43.293C60.4883 43.4961 60.8945 43.5977 61.3945 43.5977ZM72.0469 27.9883V46H68.6719V27.9883H72.0469ZM80.0391 33.3203L74.5312 39.6016L71.5781 42.5898L70.3477 40.1523L72.6914 37.1758L75.9844 33.3203H80.0391ZM76.5352 46L72.7852 40.1406L75.1172 38.1016L80.4258 46H76.5352ZM87.0938 46.2344C86.1094 46.2344 85.2266 46.0781 84.4453 45.7656C83.6641 45.4453 83 45.0039 82.4531 44.4414C81.9141 43.8789 81.5 43.2266 81.2109 42.4844C80.9219 41.7344 80.7773 40.9375 80.7773 40.0938V39.625C80.7773 38.6641 80.9141 37.7852 81.1875 36.9883C81.4609 36.1914 81.8516 35.5 82.3594 34.9141C82.875 34.3281 83.5 33.8789 84.2344 33.5664C84.9688 33.2461 85.7969 33.0859 86.7188 33.0859C87.6172 33.0859 88.4141 33.2344 89.1094 33.5312C89.8047 33.8281 90.3867 34.25 90.8555 34.7969C91.332 35.3438 91.6914 36 91.9336 36.7656C92.1758 37.5234 92.2969 38.3672 92.2969 39.2969V40.7031H82.2188V38.4531H88.9805V38.1953C88.9805 37.7266 88.8945 37.3086 88.7227 36.9414C88.5586 36.5664 88.3086 36.2695 87.9727 36.0508C87.6367 35.832 87.207 35.7227 86.6836 35.7227C86.2383 35.7227 85.8555 35.8203 85.5352 36.0156C85.2148 36.2109 84.9531 36.4844 84.75 36.8359C84.5547 37.1875 84.4062 37.6016 84.3047 38.0781C84.2109 38.5469 84.1641 39.0625 84.1641 39.625V40.0938C84.1641 40.6016 84.2344 41.0703 84.375 41.5C84.5234 41.9297 84.7305 42.3008 84.9961 42.6133C85.2695 42.9258 85.5977 43.168 85.9805 43.3398C86.3711 43.5117 86.8125 43.5977 87.3047 43.5977C87.9141 43.5977 88.4805 43.4805 89.0039 43.2461C89.5352 43.0039 89.9922 42.6406 90.375 42.1562L92.0156 43.9375C91.75 44.3203 91.3867 44.6875 90.9258 45.0391C90.4727 45.3906 89.9258 45.6797 89.2852 45.9062C88.6445 46.125 87.9141 46.2344 87.0938 46.2344ZM100.43 33.3203V35.7109H93.0469V33.3203H100.43ZM94.875 30.1914H98.25V42.1797C98.25 42.5469 98.2969 42.8281 98.3906 43.0234C98.4922 43.2188 98.6406 43.3555 98.8359 43.4336C99.0312 43.5039 99.2773 43.5391 99.5742 43.5391C99.7852 43.5391 99.9727 43.5312 100.137 43.5156C100.309 43.4922 100.453 43.4688 100.57 43.4453L100.582 45.9297C100.293 46.0234 99.9805 46.0977 99.6445 46.1523C99.3086 46.207 98.9375 46.2344 98.5312 46.2344C97.7891 46.2344 97.1406 46.1133 96.5859 45.8711C96.0391 45.6211 95.6172 45.2227 95.3203 44.6758C95.0234 44.1289 94.875 43.4102 94.875 42.5195V30.1914Z" fill="#FDFDFD"/>
</g>
<defs>
<filter id="filter0_d_484_11450" x="290.684" y="14.3083" width="48.335" height="54.708" filterUnits="userSpaceOnUse" color-interpolation-filters="sRGB">
<feFlood flood-opacity="0" result="BackgroundImageFix"/>
<feColorMatrix in="SourceAlpha" type="matrix" values="0 0 0 0 0 0 0 0 0 0 0 0 0 0 0 0 0 0 127 0" result="hardAlpha"/>
<feOffset dx="-3" dy="2"/>
<feGaussianBlur stdDeviation="7"/>
<feColorMatrix type="matrix" values="0 0 0 0 0.823529 0 0 0 0 0.823529 0 0 0 0 0.819608 0 0 0 0.5 0"/>
<feBlend mode="normal" in2="BackgroundImageFix" result="effect1_dropShadow_484_11450"/>
<feBlend mode="normal" in="SourceGraphic" in2="effect1_dropShadow_484_11450" result="shape"/>
</filter>
<filter id="filter1_d_484_11450" x="218.646" y="94.0664" width="36.1445" height="54.9595" filterUnits="userSpaceOnUse" color-interpolation-filters="sRGB">
<feFlood flood-opacity="0" result="BackgroundImageFix"/>
<feColorMatrix in="SourceAlpha" type="matrix" values="0 0 0 0 0 0 0 0 0 0 0 0 0 0 0 0 0 0 127 0" result="hardAlpha"/>
<feOffset dx="-3" dy="2"/>
<feGaussianBlur stdDeviation="7"/>
<feColorMatrix type="matrix" values="0 0 0 0 0.823529 0 0 0 0 0.823529 0 0 0 0 0.819608 0 0 0 0.5 0"/>
<feBlend mode="normal" in2="BackgroundImageFix" result="effect1_dropShadow_484_11450"/>
<feBlend mode="normal" in="SourceGraphic" in2="effect1_dropShadow_484_11450" result="shape"/>
</filter>
<clipPath id="clip0_484_11450">
<rect width="375" height="192" rx="5" fill="white"/>
</clipPath>
</defs>
</svg>
