<svg width="375" height="192" viewBox="0 0 375 192" fill="none" xmlns="http://www.w3.org/2000/svg">
<g clip-path="url(#clip0_484_11516)">
<rect width="375" height="192" rx="5" fill="#378400"/>
<path d="M421.274 25.1046C411.232 15.6641 394.729 11.9829 377.363 12.9469C356.759 14.0907 335.809 21.9956 317.321 32.6218C297.363 44.0928 280.226 58.4778 263.952 73.1618C247.991 87.5647 232.483 102.211 215.3 115.781C180.989 142.856 142.366 166.1 101.1 184.509C63.9534 201.068 22.6318 214.896 -15.701 213.304C-50.8243 211.845 -78.9416 196.982 -98.4828 177.409C-100.985 174.903 -103.358 172.314 -105.604 169.64C-106.256 168.869 -104.491 167.686 -103.838 168.459C-85.7491 189.867 -58.8698 207.265 -23.6869 211.032C14.3657 215.106 56.6887 202.045 94.5834 185.69C136.502 167.567 175.82 144.43 210.787 117.307C228.49 103.577 244.402 88.7024 260.654 73.9705C276.549 59.5622 293.143 45.3585 312.372 33.7438C329.931 23.138 349.897 14.5998 369.994 12.0283C386.542 9.9109 403.104 11.5392 415.157 18.1954C418.101 19.8307 420.743 21.7503 423.041 23.924C423.795 24.6322 422.024 25.8095 421.274 25.1046Z" fill="#E6EA47" fill-opacity="0.5"/>
<path d="M413.121 135.73C410.985 121.95 400.852 109.295 387.482 100.063C371.619 89.1087 351.717 83.6639 332.111 81.9404C310.946 80.0798 290.235 82.3115 269.994 85.2953C250.141 88.2221 230.488 91.6167 210.199 93.1337C169.697 96.1453 128.154 93.4274 87.3638 85.0976C50.6525 77.5902 12.3852 65.3605 -15.0452 41.8413C-40.179 20.2913 -52.635 -8.52362 -56.1191 -36.354C-56.5652 -39.9169 -56.8698 -43.4767 -57.0329 -47.0334C-57.0828 -48.0615 -55.1168 -48.0389 -55.0668 -47.0081C-53.6825 -18.4696 -43.5596 11.7693 -19.6738 35.3031C6.16019 60.7563 44.7385 74.2124 81.8887 82.3251C123.001 91.2739 164.998 94.4839 206.01 91.8121C226.773 90.4601 246.853 87.1065 267.105 84.07C286.912 81.1001 307.12 78.7073 327.827 80.0248C346.735 81.2279 366.264 85.5688 382.551 95.0238C395.963 102.809 407.288 113.765 412.468 126.357C413.727 129.441 414.605 132.59 415.087 135.755C415.247 136.789 413.28 136.759 413.121 135.73Z" fill="#E6EA47" fill-opacity="0.5"/>
<path d="M235.804 69.5424C234.529 69.9357 232.555 70.3228 230.669 69.5049C228.38 68.5185 228.171 66.6081 226.021 66.2398C224.28 65.9463 222.513 66.8703 221.523 67.8692C220.596 68.8057 220.4 69.7547 220.173 70.2416C217.669 75.592 191.158 68.2251 188.85 67.5696C180.221 65.1285 178.07 63.9922 176.859 61.6386C174.071 56.2008 178.808 49.1024 179.597 47.9536C180.669 47.348 182.328 46.5489 184.46 46.037C185.683 45.7435 188.932 45.0943 194.564 46.268C197.056 46.7861 199.068 47.4604 204.272 49.658C212.377 53.073 211.942 53.2977 217.423 55.5265C221.725 57.2746 225.857 59.4223 230.196 61.0767C232.013 61.7697 234.561 62.6937 235.627 65.0785C236.365 66.733 236.1 68.4374 235.797 69.5424H235.804Z" fill="#BE862F"/>
<path d="M179.596 47.9534C178.637 48.8462 177.218 50.4195 176.411 52.7357C175.572 55.1455 175.837 57.0997 176.291 60.165C176.512 61.6509 177.249 65.9275 180.006 70.8346C181.532 73.5503 182.321 74.9176 183.904 75.4358C186.099 76.1537 188.382 74.8989 190.647 73.6565C192.653 72.5577 193.977 71.3652 196.128 69.4423C199.332 66.5705 198.941 66.3145 200.537 65.3468C203.193 63.7424 204.574 64.2793 206.832 62.6748C208.491 61.4948 209.444 60.0027 209.98 58.9663C212.66 57.8988 215.341 56.8374 218.022 55.7699C211.096 52.3798 205.135 49.9138 200.581 48.1782C196.235 46.5175 193.441 45.6248 189.757 45.6248C185.361 45.6248 181.816 46.9171 179.59 47.9534H179.596Z" fill="#FCC491"/>
<path d="M281.823 82.6092C282.568 84.4322 284.378 88.7462 287.923 93.3848C290.011 96.1131 290.673 96.3004 292.269 98.8726C293.934 101.557 293.991 102.606 295.113 104.36C296.293 106.202 298.456 108.512 302.758 110.291C309.104 117.758 315.449 125.225 321.795 132.692C321.87 134.708 322.526 135.782 323.144 136.4C324.463 137.724 326.115 137.449 327.043 138.922C327.553 139.734 327.471 140.483 327.49 141.445C327.528 142.999 327.837 145.253 329.137 148.118C330.228 146.839 332.221 144.878 335.28 143.517C340.818 141.064 345.978 142.319 347.574 142.774C346.836 141.126 345.745 139.103 344.124 136.987C342.149 134.409 340.068 132.579 338.428 131.349C338.276 129.37 338.125 127.391 337.98 125.418C336.781 123.471 334.946 120.262 333.186 116.072C330.524 109.742 330.96 108.112 328.09 101.682C325.503 95.8946 323.012 92.4171 321.946 91C320.256 88.7524 318.653 87.0168 317.449 85.8057C316.9 86.0554 316.351 86.2989 315.802 86.5486C315.525 85.6433 314.982 84.4696 313.853 83.7329C313.248 83.3334 312.844 83.3022 312.207 82.99C311.198 82.4968 310.51 81.7476 309.388 80.0745C308.517 78.7759 307.369 76.8842 306.208 74.387C297.466 75.3234 288.724 76.2661 279.981 77.2026C280.347 78.5199 280.921 80.4054 281.823 82.5967V82.6092Z" fill="#FCC491"/>
<path d="M213.543 0.0437012C213.543 0.0437012 213.095 3.00919 216.356 6.12452L219.617 9.23985H234.453C234.453 9.23985 234.68 8.34708 233.33 7.57293C231.98 6.79878 234.567 6.12452 236.251 6.2369C237.935 6.34928 247.043 7.01729 249.516 6.46165C251.988 5.90601 268.514 3.01544 269.637 2.45355C270.76 1.89167 275.143 1.11752 275.143 1.11752L283.684 0.0437012H213.537H213.543Z" fill="#F7941D"/>
<path d="M214.54 3.84587C213.765 4.3703 212.629 5.24434 211.525 6.56788C211.16 7.01115 209.312 9.22122 209.841 9.90796C210.277 10.4698 212.017 9.64575 212.2 10.0203C212.446 10.5073 209.469 11.9807 209.728 13.0233C209.961 13.966 212.598 13.529 213.102 14.8026C213.405 15.5642 212.844 16.7005 211.98 17.2499C211.481 17.5683 211.033 17.5371 210.068 17.5808C208.977 17.637 207.899 17.8118 206.807 17.9117C204.429 18.1302 203.351 21.208 199.503 25.4784C197.251 27.9756 196.949 27.6697 193.435 31.3781C191.852 33.0513 190.685 34.406 189.386 35.9419C183.658 42.7219 179.06 47.3543 179.609 47.9599C179.861 48.2408 180.908 47.2981 182.984 46.5115C186.61 45.138 189.89 45.5563 192.76 45.9559C196.286 46.4491 198.797 47.4417 203.666 49.4021C208.536 51.3687 208.813 51.8244 214.793 54.4091C219.568 56.4693 220.419 56.6191 225.472 58.8604C233.041 62.213 235.696 63.8986 236.15 66.4271C236.447 68.0691 235.715 69.5112 235.816 69.5424C236.131 69.6361 239.121 54.0095 242.559 53.9658C242.559 53.9658 244.975 53.9346 252.336 84.1202C253.49 81.548 256.146 80.6864 257.659 81.523C258.662 82.0787 259.192 83.396 259.161 84.7882C266.219 84.039 273.416 83.3398 280.745 82.7092C288.005 82.0849 295.152 81.5418 302.178 81.0798C301.283 76.3162 301.428 75.2362 301.731 75.1488C302.033 75.0551 302.797 75.9167 304.878 80.7863L310.725 79.8936C309.483 78.0706 308.045 75.4859 307.13 72.177C306.745 70.7848 306.518 69.4863 306.379 68.3188C305.206 66.527 304.765 64.9725 304.582 63.8674C304.329 62.3379 304.544 61.5138 304.134 60.0092C303.711 58.4671 302.935 57.3309 302.336 56.5942C302.134 53.0855 301.939 49.5706 301.737 46.062C300.892 45.3128 299.712 44.1016 298.741 42.3536C297.284 39.7252 297.082 37.2841 296.943 35.38C296.59 30.5103 297.978 29.9235 297.246 26.4773C296.691 23.8801 295.89 24.1548 294.546 20.5463C293.165 16.8254 294.054 16.6506 292.597 11.2003C291.43 6.84882 290.099 4.08936 289.298 2.59724C288.718 1.51094 288.182 0.643142 287.797 0.0438006C286.8 0.00634172 285.394 -0.024874 283.71 0.0438006C280.928 0.156177 278.298 0.487063 274.539 1.23C270.029 2.12277 269.814 2.42868 264.699 3.57117C262.428 4.07687 258.965 4.84478 254.48 5.50031C252.077 5.85616 248.229 6.40556 243.139 6.61158C239.374 6.76142 236.169 6.67402 233.76 6.53667L234.473 9.23995H219.637C217.947 7.44192 216.25 5.6439 214.559 3.85212L214.54 3.84587Z" fill="#F7941D"/>
<path d="M182.87 74.7492C182.662 75.3922 184.68 76.4099 187.601 78.4888C189.891 80.112 191.631 81.5979 192.748 82.5968C192.773 82.6155 195.069 84.3262 204.606 91.0438V93.154C214.591 98.136 224.57 103.112 234.555 108.094C235.23 108.468 236.119 108.799 236.99 108.55C237.847 108.3 238.081 107.663 238.51 107.494C239.405 107.145 241.342 108.774 245.505 115.492C246.451 113.669 247.813 111.446 249.762 109.155C251.825 106.72 254.626 106.377 255.994 103.424C256.694 101.907 256.537 101.033 256.448 100.708C255.963 98.7915 253.421 97.9862 252.191 97.5367C249.548 96.5752 245.902 94.8022 241.399 91.1999C235.009 84.0078 227.793 76.6908 219.663 69.4737C217.732 67.7569 215.802 66.1024 213.885 64.4917C211.86 63.6364 209.829 62.7811 207.804 61.9258C207.085 62.0194 206.101 62.1817 204.959 62.4752C204.177 62.675 201.825 63.293 199.749 64.4917C196.854 66.1649 197.434 67.607 193.82 70.8285C192.231 72.2457 191.158 73.1946 189.411 73.8439C185.948 75.13 183.116 74 182.877 74.7492H182.87Z" fill="#F7941D"/>
<path d="M275.939 0L274.141 5.86231L271.441 14.3155L263.645 16.0948L261.545 17.1312L257.647 18.024H255.25C255.25 18.024 253.301 19.6534 254.878 20.8396C256.454 22.0258 258.549 22.544 258.549 22.544C258.549 22.544 260.649 22.9872 261.248 22.544C261.847 22.1007 259.375 24.1048 259.375 24.1048C259.375 24.1048 258.176 26.7768 258.624 27.5198C259.072 28.2627 260.126 29.5987 260.126 29.5987H261.4L265.746 24.0361C265.746 24.0361 266.269 24.0361 266.118 24.4044C265.966 24.7728 261.847 29.5987 261.847 29.5987C261.847 29.5987 261.475 32.3457 262.447 32.6391C263.418 32.9326 264.831 33.5319 265.102 33.5319C265.373 33.5319 270.394 27.3762 270.394 27.3762C270.394 27.3762 270.994 27.0765 270.842 27.6758C270.691 28.2752 266.048 33.5382 266.048 33.5382C266.048 33.5382 265.897 34.9491 266.42 35.1676C266.944 35.3861 267.77 35.8356 268.445 35.8356C269.12 35.8356 274.141 30.1232 274.141 30.1232C274.141 30.1232 275.567 28.937 275.939 29.0868C276.311 29.2366 269.026 36.1728 269.026 36.1728C269.026 36.1728 268.521 38.0644 269.928 38.0644C271.334 38.0644 274.759 36.0604 274.759 36.0604L280.493 30.4416L282.738 25.8778L283.073 23.0934L286.725 17.2123V14.3967L290.471 0.00624314H275.932L275.939 0Z" fill="#FCC491"/>
<path d="M245.662 115.492C246.545 116.703 251.97 124.232 255.256 131.437C256.713 134.627 257.438 136.219 258.031 138.41C258.46 140.003 259.059 141.557 259.457 143.155C259.917 145.016 260.069 146.058 260.807 146.346C261.759 146.714 263.04 145.571 263.506 145.159C267.177 141.882 269.946 129.239 270.773 125.206L269.574 121.423L269.051 100.359C268.483 99.8092 267.903 99.3409 267.329 98.9476C261.564 95.0019 254.152 96.75 251.459 97.5304C254.184 97.9362 256.265 99.5532 256.53 101.389C256.877 103.811 253.969 106.052 253.389 106.502C252.6 107.114 252.342 107.082 251.333 107.9C250.948 108.212 249.989 109.024 248.576 110.878C247.744 111.971 246.69 113.507 245.675 115.492H245.662Z" fill="#E6E7E8"/>
<path d="M329.143 148.131L332.139 156.141L335.734 162.072L338.434 164.744C338.434 164.744 346.678 166.966 350.576 165.487C354.474 164.001 355.37 161.629 355.37 161.629L354.02 152.133C354.02 152.133 349.599 143.243 347.574 142.787C345.549 142.331 340.995 142.113 340.995 142.113L335.28 143.53L329.137 148.131H329.143Z" fill="#E6E7E8"/>
<path d="M261.406 146.402C261.406 146.402 263.342 147.238 264.244 147.088C265.146 146.939 271.738 131.955 271.738 131.955L273.535 130.619V128.016L271.889 127.06L271.586 123.502L270.76 112.97L272.633 112.039C272.633 112.039 273.043 111.109 273.005 110.11C272.968 109.111 272.892 107.888 272.892 107.888L271.094 107.407V105.035H272.595C272.595 105.035 272.898 102.918 272.261 102.512C271.624 102.107 269.151 100.177 269.151 100.177L269.719 121.922L270.76 125.212L267.884 136.431L265.354 142.625L263.487 145.166L261.399 146.408L261.406 146.402Z" fill="#58595B"/>
<path d="M269.296 110.591L264.471 100.177C264.471 100.177 261.551 103.031 260.876 103.811C260.201 104.591 254.669 105.384 254.669 105.384C254.669 105.384 257.917 102.219 256.53 100.177C255.142 98.1359 251.452 97.5303 251.452 97.5303C251.452 97.5303 255.994 96.4627 257.829 96.4814C259.665 96.5002 264.723 96.9684 266.881 98.6665L269.044 100.358L269.296 110.591Z" fill="#58595B"/>
<path d="M195.907 84.7818C195.907 84.7818 205.488 78.4013 208.491 73.8064C211.493 69.2114 212.641 64.5728 212.641 64.5728L217.05 67.5133C217.05 67.5133 212.692 77.5148 211.045 79.1442C209.399 80.7737 200.455 88.0033 200.455 88.0033L195.92 84.7756L195.907 84.7818Z" fill="#8DC63F"/>
<path d="M202.701 89.6015C202.701 89.6015 212.989 84.5633 216.023 79.8872C219.057 75.2111 220.211 70.1729 220.211 70.1729L218.508 68.7744C218.508 68.7744 215.752 76.928 213.525 79.188C211.299 81.448 209.387 83.7829 207.476 84.7818C205.565 85.7807 201.175 88.5277 201.175 88.5277L202.695 89.6015H202.701Z" fill="#8DC63F"/>
<path d="M292.654 99.5093C292.654 99.5093 299.92 104.735 304.714 100.177C309.508 95.6198 312.825 83.2646 312.825 83.2646L314.939 84.788L315.809 87.1604L317.455 85.8243L321.606 90.5691L324.558 94.8956L329.143 102.887L330.808 109.242L333.609 117.078L337.98 125.437L338.428 131.368L342.623 135.201L346.401 139.678L348.249 143.174C348.249 143.174 341.084 141.576 338.182 142.556C335.281 143.536 330.834 145.571 330.083 147.113C329.333 148.655 327.768 143.954 327.768 143.954C327.768 143.954 328.178 139.952 327.043 138.935C325.907 137.917 323.145 136.413 323.145 136.413L321.795 132.704L302.759 110.304C302.759 110.304 300.835 109.511 299.699 108.743C298.564 107.975 296.981 106.739 296.356 105.99C295.732 105.241 292.647 99.5093 292.647 99.5093H292.654Z" fill="#F7941D"/>
<path d="M316.843 86.0929C316.843 86.0929 317.455 101.395 310.706 104.51C303.957 107.626 298.242 107.888 297.302 106.939C296.363 105.99 302.405 110.148 302.405 110.148C302.405 110.148 309.937 109.873 311.905 108.15C313.872 106.427 317.972 101.863 318.704 99.5282C319.436 97.1932 320.243 89.0147 320.243 89.0147L317.449 85.8245L316.837 86.0992L316.843 86.0929Z" fill="#8DC63F"/>
<path d="M304.266 112.064C304.266 112.064 309.659 113.638 311.91 112.82C314.162 112.002 321.353 105.771 321.952 102.881C322.551 99.9901 322.337 91.5369 322.337 91.5369L323.844 93.7469C323.844 93.7469 325.32 100.733 324.5 102.956C323.68 105.178 319.328 111.115 317.379 112.077C315.43 113.038 312.207 115.329 311.084 115.336C309.961 115.342 307.047 115.336 307.047 115.336L304.266 112.064Z" fill="#8DC63F"/>
<path d="M329.465 147.769L334.013 144.167C334.013 144.167 334.769 141.457 333.42 140.639C332.07 139.821 336.264 137.674 336.264 137.674H339.412L341.298 142.094L348.261 143.174C348.261 143.174 341.512 142.431 339.563 142.725C337.614 143.018 329.149 148.137 329.149 148.137" fill="#58595B"/>
<path d="M297.296 52.9604C298.917 62.3314 300.544 71.7024 302.165 81.0733C300.683 81.1732 299.201 81.2731 297.725 81.3792C297.58 71.9084 297.441 62.4375 297.296 52.9604Z" fill="#8DC63F"/>
<path d="M227.42 159.194L225.465 153.65L229.849 145.359C229.849 145.359 231.848 145.178 231.854 145.178C232.025 146.839 231.88 148.168 231.703 149.086C231.571 149.779 231.388 150.366 231.028 151.534C230.574 152.994 230.265 153.993 229.792 155.092C229.344 156.122 228.619 157.571 227.42 159.188V159.194Z" fill="#F1F2F2" stroke="#D1D3D4" stroke-width="0.5" stroke-miterlimit="10"/>
<path d="M181.122 147.856L186.994 153.537C188.59 156.035 190.18 158.538 191.775 161.035C191.485 162.571 191.195 164.101 190.905 165.637C189.631 164.788 188.067 163.57 186.515 161.885C185.916 161.229 184.698 159.849 183.487 157.826C182.125 155.554 180.68 153.138 180.807 149.985C180.844 149.074 181.002 148.331 181.128 147.856H181.122Z" fill="#F1F2F2" stroke="#D1D3D4" stroke-width="0.5" stroke-miterlimit="10"/>
<path d="M217.328 136.038C216.105 139.004 214.881 141.969 213.657 144.941C215.266 147.994 216.88 151.047 218.489 154.099C220.652 154.056 222.81 154.006 224.973 153.962C226.72 151.003 228.467 148.05 230.215 145.091C228.789 142.1 227.37 139.11 225.944 136.113C223.074 136.088 220.198 136.063 217.328 136.038Z" fill="#F1F2F2" stroke="#D1D3D4" stroke-width="0.5" stroke-miterlimit="10"/>
<path d="M227.521 131.737C226.959 133.098 226.398 134.459 225.843 135.82L230.22 145.091C230.744 144.991 231.267 144.891 231.797 144.791C231.829 142.668 231.501 140.976 231.198 139.821C230.794 138.304 230.29 137.193 229.621 135.745C228.851 134.065 228.101 132.711 227.521 131.737Z" fill="#F1F2F2" stroke="#D1D3D4" stroke-width="0.5" stroke-miterlimit="10"/>
<path d="M215.045 121.722C213.31 124.145 211.575 126.567 209.841 128.996L217.069 135.807L225.73 136.119C226.329 134.658 226.928 133.204 227.527 131.743C226.285 129.764 224.966 128.303 223.932 127.291C223.472 126.848 222.078 125.524 219.958 124.176C218.116 123.002 216.401 122.234 215.045 121.729V121.722Z" fill="#F1F2F2" stroke="#D1D3D4" stroke-width="0.5" stroke-miterlimit="10"/>
<path d="M212.307 169.788C212.005 166.973 211.708 164.151 211.405 161.335C213.764 158.925 216.13 156.516 218.489 154.106C220.608 154.131 222.727 154.156 224.847 154.174C225.736 155.916 226.626 157.664 227.521 159.406C226.146 161.154 224.91 162.54 223.964 163.545C222.223 165.4 221.371 166.074 221.075 166.305C220.457 166.786 219.277 167.685 217.555 168.459C216.432 168.958 214.647 169.601 212.307 169.795V169.788Z" fill="#F1F2F2" stroke="#D1D3D4" stroke-width="0.5" stroke-miterlimit="10"/>
<path d="M190.867 165.83L191.775 161.029C194.948 159.756 198.121 158.482 201.294 157.208C204.668 158.582 208.037 159.955 211.411 161.323C211.663 164.288 211.909 167.254 212.162 170.225C209.412 171.174 207.109 171.299 205.64 171.262C203.596 171.212 202.133 170.819 199.345 170.076C197.383 169.551 196.008 169.177 194.33 168.278C192.766 167.435 191.611 166.505 190.867 165.824V165.83Z" fill="#F1F2F2" stroke="#D1D3D4" stroke-width="0.5" stroke-miterlimit="10"/>
<path d="M179.949 148.356C185.449 146.002 190.956 143.655 196.456 141.301C197.276 137.599 198.096 133.897 198.91 130.194C196.178 128.359 193.441 126.523 190.71 124.688C189.227 125.93 187.316 127.747 185.474 130.251C184.528 131.537 182.731 134.021 181.425 137.667C179.924 141.875 179.779 145.696 179.943 148.356H179.949Z" fill="#F1F2F2" stroke="#D1D3D4" stroke-width="0.5" stroke-miterlimit="10"/>
<path d="M215.045 121.723C215.019 121.754 209.393 129.62 209.393 129.62C209.393 129.62 199.572 130.756 197.85 130.956L191.631 124.694C193.876 123.296 198.456 120.861 204.732 120.455C209.16 120.168 212.774 120.998 215.045 121.723Z" fill="#F1F2F2" stroke="#D1D3D4" stroke-width="0.5" stroke-miterlimit="10"/>
<path d="M203.318 147.088L201.294 157.215C198.121 158.488 194.948 159.762 191.775 161.035C190.198 158.763 188.628 156.484 187.051 154.212C186.805 151.415 186.553 148.612 186.307 145.815C189.688 144.31 193.075 142.812 196.456 141.307C198.739 143.236 201.029 145.165 203.312 147.095L203.318 147.088Z" fill="#F1F2F2" stroke="#D1D3D4" stroke-width="0.5" stroke-miterlimit="10"/>
<path d="M203.319 147.088C206.769 146.37 210.213 145.652 213.663 144.934C214.887 141.969 216.111 139.003 217.334 136.032C214.685 133.684 212.036 131.337 209.393 128.983C206.119 129.351 202.846 129.726 199.578 130.094C198.544 133.828 197.503 137.561 196.469 141.295C198.752 143.224 201.042 145.153 203.325 147.082L203.319 147.088Z" fill="#F1F2F2" stroke="#D1D3D4" stroke-width="0.5" stroke-miterlimit="10"/>
<path d="M232.283 145.758C232.283 146.164 232.27 146.576 232.258 146.976C232.207 147.968 232.106 148.949 231.949 149.91C231.942 149.966 231.93 150.022 231.917 150.079C231.898 150.172 231.879 150.26 231.867 150.347C231.854 150.416 231.842 150.478 231.829 150.541C231.778 150.871 231.703 151.202 231.627 151.527C231.615 151.564 231.608 151.602 231.602 151.639C231.589 151.683 231.583 151.721 231.577 151.758C231.564 151.802 231.558 151.833 231.551 151.858C231.551 151.87 231.545 151.883 231.539 151.902C231.135 153.569 230.567 155.173 229.842 156.696C229.829 156.721 229.817 156.746 229.811 156.771C229.804 156.796 229.792 156.815 229.785 156.834C229.779 156.852 229.766 156.871 229.754 156.896C229.665 157.09 229.571 157.283 229.464 157.47C229.445 157.514 229.426 157.558 229.401 157.595C228.606 159.137 227.66 160.586 226.581 161.928C226.562 161.953 226.543 161.972 226.524 161.997C226.499 162.022 226.48 162.047 226.455 162.072C226.619 161.822 228.984 158.201 229.634 157.102C229.634 157.102 229.64 157.09 229.647 157.083C230.189 155.866 230.795 154.18 231.135 152.095C229.93 153.668 228.7 155.41 227.483 157.327C225.666 160.192 224.209 162.939 223.042 165.455C223.055 165.455 223.061 165.437 223.074 165.424C224.291 164.269 226.165 162.371 226.417 162.122C226.367 162.184 226.316 162.246 226.266 162.303C226.215 162.365 226.165 162.421 226.108 162.477C225.982 162.621 225.862 162.765 225.729 162.908C225.704 162.933 225.685 162.958 225.666 162.983C225.521 163.139 225.383 163.289 225.25 163.433C225.036 163.651 224.828 163.857 224.626 164.051C223.869 164.812 223.068 165.543 222.216 166.205C222.166 166.248 222.103 166.298 222.027 166.348C221.964 166.392 221.901 166.442 221.825 166.492C220.646 167.385 219.39 168.165 218.072 168.833C218.041 168.852 218.022 168.864 218.009 168.87C218.003 168.877 217.996 168.877 217.996 168.877C214.414 170.7 210.352 171.724 206.05 171.724C191.561 171.724 179.816 160.099 179.816 145.758C179.816 131.418 191.561 119.787 206.05 119.787C220.538 119.787 231.747 130.893 232.264 144.784C232.277 145.109 232.283 145.434 232.283 145.758V145.758Z" stroke="#D1D3D4" stroke-width="0.5" stroke-miterlimit="10"/>
<path d="M207.74 119.8C199.351 119.444 192.393 122.728 192.204 127.123C192.015 131.524 198.663 135.376 207.059 135.732C215.448 136.082 222.405 132.804 222.594 128.403C222.783 124.001 216.135 120.149 207.74 119.8ZM207.368 132.074C201.382 132.074 196.537 129.832 196.537 127.073C196.537 124.313 201.382 122.072 207.368 122.072C213.354 122.072 218.191 124.313 218.191 127.073C218.191 129.832 213.347 132.074 207.368 132.074Z" fill="#D7DF23" stroke="#D1D3D4" stroke-width="0.5" stroke-miterlimit="10"/>
<path d="M218.192 127.073C218.192 129.832 213.348 132.074 207.368 132.074C201.389 132.074 196.538 129.832 196.538 127.073C196.538 124.313 201.382 122.072 207.368 122.072C213.354 122.072 218.192 124.313 218.192 127.073Z" stroke="#D1D3D4" stroke-width="0.5" stroke-miterlimit="10"/>
<path d="M197.869 167.909C195.434 169.601 190.911 167.528 186.988 163.202C189.29 165.562 191.845 166.648 193.245 165.668C195.005 164.45 194.311 160.467 191.694 156.778C189.082 153.094 185.531 151.09 183.778 152.314C182.037 153.519 182.693 157.414 185.235 161.067C185.127 160.917 185.02 160.767 184.913 160.617C180.643 154.593 179.514 148.087 182.396 146.083C185.272 144.079 191.075 147.344 195.346 153.369C199.622 159.4 200.751 165.905 197.869 167.909Z" fill="#D7DF23" stroke="#D1D3D4" stroke-width="0.5" stroke-miterlimit="10"/>
<path d="M193.246 165.668C191.845 166.648 189.291 165.562 186.989 163.202C186.944 163.158 186.9 163.114 186.862 163.065C186.307 162.446 185.771 161.785 185.248 161.085C185.241 161.085 185.241 161.073 185.235 161.067C182.693 157.414 182.037 153.519 183.778 152.314C185.532 151.09 189.083 153.094 191.694 156.778C194.312 160.467 195.006 164.451 193.246 165.668V165.668Z" stroke="#D1D3D4" stroke-width="0.5" stroke-miterlimit="10"/>
<path d="M186.862 163.065C186.326 162.509 185.808 161.885 185.329 161.204C185.304 161.167 185.272 161.123 185.247 161.085C185.771 161.785 186.307 162.446 186.862 163.065Z" fill="#D7DF23" stroke="#D1D3D4" stroke-width="0.5" stroke-miterlimit="10"/>
<path d="M231.949 149.91C231.942 149.966 231.93 150.023 231.917 150.079C231.898 150.172 231.879 150.26 231.867 150.347C231.854 150.416 231.841 150.478 231.829 150.541C231.747 150.928 231.677 151.278 231.627 151.527C231.614 151.565 231.608 151.602 231.602 151.64C231.589 151.683 231.583 151.721 231.576 151.758C231.564 151.802 231.557 151.833 231.551 151.858C231.551 151.871 231.545 151.883 231.539 151.902C231.393 152.426 230.182 155.848 229.842 156.697C229.829 156.722 229.817 156.747 229.81 156.771C229.804 156.796 229.791 156.815 229.785 156.834C229.779 156.853 229.766 156.871 229.753 156.896C229.728 156.94 229.69 157.009 229.646 157.084C230.189 155.866 230.794 154.181 231.135 152.095C229.93 153.669 228.7 155.41 227.483 157.327C225.666 160.193 224.209 162.94 223.042 165.456C222.689 165.787 222.392 166.061 222.216 166.205C222.165 166.249 222.102 166.299 222.027 166.348C221.964 166.392 221.901 166.442 221.825 166.492C220.746 167.241 218.501 168.577 218.072 168.833C218.04 168.852 218.021 168.864 218.009 168.871C218.002 168.877 217.996 168.877 217.996 168.877C217.996 168.877 221.15 160.667 224.524 154.73C227.893 148.799 232.264 144.785 232.264 144.785C232.264 144.785 232.245 146.083 232.258 146.976C232.258 147.344 232.264 147.644 232.283 147.756C232.308 147.956 232.138 148.949 231.949 149.91Z" fill="#D7DF23" stroke="#D1D3D4" stroke-width="0.5" stroke-miterlimit="10"/>
<path d="M231.135 152.095C230.795 154.181 230.189 155.866 229.647 157.084C229.647 157.09 229.634 157.096 229.634 157.102C228.984 158.201 226.619 161.822 226.455 162.072C226.455 162.072 226.455 162.076 226.455 162.084C226.455 162.084 226.436 162.109 226.423 162.122C226.171 162.372 224.298 164.27 223.08 165.425C223.068 165.437 223.061 165.45 223.049 165.456C224.216 162.94 225.673 160.193 227.489 157.327C228.707 155.411 229.937 153.669 231.141 152.095H231.135Z" stroke="#D1D3D4" stroke-width="0.5" stroke-miterlimit="10"/>
<path d="M226.417 162.122C226.367 162.184 226.316 162.247 226.266 162.303C226.215 162.365 226.165 162.422 226.108 162.478C225.982 162.621 225.862 162.765 225.73 162.908C225.705 162.933 225.686 162.958 225.667 162.983C225.522 163.139 225.383 163.289 225.25 163.433C224.449 164.257 223.699 164.913 223.074 165.424C224.292 164.269 226.165 162.372 226.417 162.122Z" fill="#D7DF23" stroke="#D1D3D4" stroke-width="0.5" stroke-miterlimit="10"/>
<path d="M229.634 157.102C229.577 157.233 229.521 157.352 229.464 157.471C229.445 157.514 229.426 157.558 229.401 157.595C228.442 159.6 227.351 161.01 226.581 161.928C226.562 161.953 226.543 161.972 226.524 161.997C226.499 162.022 226.48 162.047 226.455 162.072C226.619 161.822 228.984 158.201 229.634 157.102Z" fill="#D7DF23" stroke="#D1D3D4" stroke-width="0.5" stroke-miterlimit="10"/>
<path d="M203.319 147.088L213.77 145.309C215.347 148.237 216.918 151.171 218.495 154.099C216.136 156.509 213.77 158.919 211.411 161.329C208.037 159.955 204.669 158.582 201.294 157.215L203.319 147.088Z" fill="#F1F2F2" stroke="#D1D3D4" stroke-width="0.5" stroke-miterlimit="10"/>
<path opacity="0.5" d="M238.616 40.4993C238.616 40.4993 234.182 36.4912 220.211 39.1633C206.24 41.8354 199.049 45.5937 199.049 45.5937L202.423 42.391C202.423 42.391 218.609 36.048 223.554 35.8232C228.499 35.5985 238.616 37.1593 238.616 37.1593C238.616 37.1593 221.592 31.3719 220.211 30.9286C218.829 30.4853 208.264 28.9246 203.994 30.9286C199.724 32.9327 192.975 35.6047 192.975 35.6047C192.975 35.6047 200.619 28.038 203.54 28.038C206.46 28.038 210.737 27.1453 215.796 27.1453C220.854 27.1453 228.272 30.7039 230.524 31.3719C232.776 32.0399 238.616 34.4872 238.616 34.4872L241.537 38.0458L238.616 40.4931V40.4993Z" fill="#F15A29"/>
<path opacity="0.5" d="M267.474 79.188L258.214 70.3915L248.614 58.8853L245.139 47.5478C245.139 47.5478 252.115 50.2199 256.309 50.2199C260.504 50.2199 273.548 42.3972 273.548 42.3972C273.548 42.3972 266.25 56.7502 260.384 55.8574C254.518 54.9647 249.958 52.9668 249.958 52.9668C249.958 52.9668 256.619 62.6125 262.914 64.5791C269.209 66.5457 277.005 69.2427 280.001 68.7807C282.997 68.3187 270.571 74.5681 267.493 72.1832C264.415 69.7984 270.47 80.7925 272.388 81.3794C274.305 81.9662 267.493 79.188 267.493 79.188H267.474Z" fill="#F15A29"/>
<path opacity="0.45" d="M212.711 5.30667C212.194 6.01215 215.6 9.35223 217.215 10.4947C218.148 11.1565 219.145 11.631 219.145 11.631C219.145 11.631 219.877 11.9806 220.633 12.2366C221.63 12.5674 223.68 13.0045 229.925 12.2366C230.581 12.1554 231.06 12.0867 231.186 12.0742C235.633 11.4562 238.844 10.6258 239.518 10.4573C244.104 9.32725 249.535 10.039 256.902 9.86416C260.737 9.77676 266.376 9.47085 273.315 8.43448L275.939 0C274.248 1.08631 271.662 2.53472 268.294 3.63351C263.86 5.08192 260.554 5.10689 256 5.4128C248.097 5.94347 245.328 6.3243 240.414 7.1921C238.206 7.57917 236.699 7.9163 235.917 8.08487C232.479 8.80283 228.392 9.6519 225.124 9.57074C217.839 9.3772 213.317 4.47633 212.711 5.31291V5.30667Z" fill="#F15A29"/>
<path opacity="0.45" d="M189.764 45.6248C189.764 45.6248 179.236 53.3038 179.552 58.8852C179.867 64.4666 187.638 75.1423 187.638 75.1423C187.638 75.1423 193.271 71.9334 193.876 71.4214C194.482 70.9095 198.954 66.6704 198.954 66.6704L201.181 64.8349L206.479 63.1805L209.992 58.9726L218.035 55.7761L207.444 51.0313L200.178 47.9847L193.965 46.1492L189.77 45.631L189.764 45.6248Z" fill="#F7941D"/>
<path opacity="0.5" d="M291.538 27.5261L286.145 31.9775L277.913 45.2129L279.25 36.3727L282.846 31.3844L291.538 27.5261Z" fill="#F15A29"/>
<path d="M29.0391 28.9375V46H25.5234V28.9375H29.0391ZM35.8359 36.2266V38.9688H28.0781V36.2266H35.8359ZM36.6562 28.9375V31.6914H28.0781V28.9375H36.6562ZM37.6875 39.7891V39.543C37.6875 38.6133 37.8203 37.7578 38.0859 36.9766C38.3516 36.1875 38.7383 35.5039 39.2461 34.9258C39.7539 34.3477 40.3789 33.8984 41.1211 33.5781C41.8633 33.25 42.7148 33.0859 43.6758 33.0859C44.6367 33.0859 45.4922 33.25 46.2422 33.5781C46.9922 33.8984 47.6211 34.3477 48.1289 34.9258C48.6445 35.5039 49.0352 36.1875 49.3008 36.9766C49.5664 37.7578 49.6992 38.6133 49.6992 39.543V39.7891C49.6992 40.7109 49.5664 41.5664 49.3008 42.3555C49.0352 43.1367 48.6445 43.8203 48.1289 44.4062C47.6211 44.9844 46.9961 45.4336 46.2539 45.7539C45.5117 46.0742 44.6602 46.2344 43.6992 46.2344C42.7383 46.2344 41.8828 46.0742 41.1328 45.7539C40.3906 45.4336 39.7617 44.9844 39.2461 44.4062C38.7383 43.8203 38.3516 43.1367 38.0859 42.3555C37.8203 41.5664 37.6875 40.7109 37.6875 39.7891ZM41.0625 39.543V39.7891C41.0625 40.3203 41.1094 40.8164 41.2031 41.2773C41.2969 41.7383 41.4453 42.1445 41.6484 42.4961C41.8594 42.8398 42.1328 43.1094 42.4688 43.3047C42.8047 43.5 43.2148 43.5977 43.6992 43.5977C44.168 43.5977 44.5703 43.5 44.9062 43.3047C45.2422 43.1094 45.5117 42.8398 45.7148 42.4961C45.918 42.1445 46.0664 41.7383 46.1602 41.2773C46.2617 40.8164 46.3125 40.3203 46.3125 39.7891V39.543C46.3125 39.0273 46.2617 38.543 46.1602 38.0898C46.0664 37.6289 45.9141 37.2227 45.7031 36.8711C45.5 36.5117 45.2305 36.2305 44.8945 36.0273C44.5586 35.8242 44.1523 35.7227 43.6758 35.7227C43.1992 35.7227 42.793 35.8242 42.457 36.0273C42.1289 36.2305 41.8594 36.5117 41.6484 36.8711C41.4453 37.2227 41.2969 37.6289 41.2031 38.0898C41.1094 38.543 41.0625 39.0273 41.0625 39.543ZM51.2344 39.7891V39.543C51.2344 38.6133 51.3672 37.7578 51.6328 36.9766C51.8984 36.1875 52.2852 35.5039 52.793 34.9258C53.3008 34.3477 53.9258 33.8984 54.668 33.5781C55.4102 33.25 56.2617 33.0859 57.2227 33.0859C58.1836 33.0859 59.0391 33.25 59.7891 33.5781C60.5391 33.8984 61.168 34.3477 61.6758 34.9258C62.1914 35.5039 62.582 36.1875 62.8477 36.9766C63.1133 37.7578 63.2461 38.6133 63.2461 39.543V39.7891C63.2461 40.7109 63.1133 41.5664 62.8477 42.3555C62.582 43.1367 62.1914 43.8203 61.6758 44.4062C61.168 44.9844 60.543 45.4336 59.8008 45.7539C59.0586 46.0742 58.207 46.2344 57.2461 46.2344C56.2852 46.2344 55.4297 46.0742 54.6797 45.7539C53.9375 45.4336 53.3086 44.9844 52.793 44.4062C52.2852 43.8203 51.8984 43.1367 51.6328 42.3555C51.3672 41.5664 51.2344 40.7109 51.2344 39.7891ZM54.6094 39.543V39.7891C54.6094 40.3203 54.6562 40.8164 54.75 41.2773C54.8438 41.7383 54.9922 42.1445 55.1953 42.4961C55.4062 42.8398 55.6797 43.1094 56.0156 43.3047C56.3516 43.5 56.7617 43.5977 57.2461 43.5977C57.7148 43.5977 58.1172 43.5 58.4531 43.3047C58.7891 43.1094 59.0586 42.8398 59.2617 42.4961C59.4648 42.1445 59.6133 41.7383 59.707 41.2773C59.8086 40.8164 59.8594 40.3203 59.8594 39.7891V39.543C59.8594 39.0273 59.8086 38.543 59.707 38.0898C59.6133 37.6289 59.4609 37.2227 59.25 36.8711C59.0469 36.5117 58.7773 36.2305 58.4414 36.0273C58.1055 35.8242 57.6992 35.7227 57.2227 35.7227C56.7461 35.7227 56.3398 35.8242 56.0039 36.0273C55.6758 36.2305 55.4062 36.5117 55.1953 36.8711C54.9922 37.2227 54.8438 37.6289 54.75 38.0898C54.6562 38.543 54.6094 39.0273 54.6094 39.543ZM71.5312 33.3203V35.7109H64.1484V33.3203H71.5312ZM65.9766 30.1914H69.3516V42.1797C69.3516 42.5469 69.3984 42.8281 69.4922 43.0234C69.5938 43.2188 69.7422 43.3555 69.9375 43.4336C70.1328 43.5039 70.3789 43.5391 70.6758 43.5391C70.8867 43.5391 71.0742 43.5312 71.2383 43.5156C71.4102 43.4922 71.5547 43.4688 71.6719 43.4453L71.6836 45.9297C71.3945 46.0234 71.082 46.0977 70.7461 46.1523C70.4102 46.207 70.0391 46.2344 69.6328 46.2344C68.8906 46.2344 68.2422 46.1133 67.6875 45.8711C67.1406 45.6211 66.7188 45.2227 66.4219 44.6758C66.125 44.1289 65.9766 43.4102 65.9766 42.5195V30.1914ZM73.4531 28H76.8281V43.0938L76.4883 46H73.4531V28ZM84.8555 39.5312V39.7773C84.8555 40.7227 84.7539 41.5898 84.5508 42.3789C84.3555 43.168 84.0508 43.8516 83.6367 44.4297C83.2227 45 82.707 45.4453 82.0898 45.7656C81.4805 46.0781 80.7617 46.2344 79.9336 46.2344C79.1602 46.2344 78.4883 46.0781 77.918 45.7656C77.3555 45.4531 76.8828 45.0117 76.5 44.4414C76.1172 43.8711 75.8086 43.2031 75.5742 42.4375C75.3398 41.6719 75.1641 40.8359 75.0469 39.9297V39.3906C75.1641 38.4844 75.3398 37.6484 75.5742 36.8828C75.8086 36.1172 76.1172 35.4492 76.5 34.8789C76.8828 34.3086 77.3555 33.8672 77.918 33.5547C78.4805 33.2422 79.1445 33.0859 79.9102 33.0859C80.7461 33.0859 81.4727 33.2461 82.0898 33.5664C82.7148 33.8789 83.2305 34.3242 83.6367 34.9023C84.0508 35.4727 84.3555 36.1523 84.5508 36.9414C84.7539 37.7227 84.8555 38.5859 84.8555 39.5312ZM81.4805 39.7773V39.5312C81.4805 39.0156 81.4414 38.5312 81.3633 38.0781C81.293 37.6172 81.168 37.2148 80.9883 36.8711C80.8086 36.5195 80.5625 36.2422 80.25 36.0391C79.9453 35.8359 79.5508 35.7344 79.0664 35.7344C78.6055 35.7344 78.2148 35.8125 77.8945 35.9688C77.5742 36.125 77.3086 36.3438 77.0977 36.625C76.8945 36.9062 76.7422 37.2422 76.6406 37.6328C76.5391 38.0156 76.4766 38.4375 76.4531 38.8984V40.4336C76.4766 41.0508 76.5781 41.5977 76.7578 42.0742C76.9453 42.543 77.2266 42.9141 77.6016 43.1875C77.9844 43.4531 78.4805 43.5859 79.0898 43.5859C79.5664 43.5859 79.9609 43.4922 80.2734 43.3047C80.5859 43.1172 80.8281 42.8516 81 42.5078C81.1797 42.1641 81.3047 41.7617 81.375 41.3008C81.4453 40.832 81.4805 40.3242 81.4805 39.7773ZM93.7969 43.1406V37.4922C93.7969 37.0859 93.7305 36.7383 93.5977 36.4492C93.4648 36.1523 93.2578 35.9219 92.9766 35.7578C92.7031 35.5938 92.3477 35.5117 91.9102 35.5117C91.5352 35.5117 91.2109 35.5781 90.9375 35.7109C90.6641 35.8359 90.4531 36.0195 90.3047 36.2617C90.1562 36.4961 90.082 36.7734 90.082 37.0938H86.707C86.707 36.5547 86.832 36.043 87.082 35.5586C87.332 35.0742 87.6953 34.6484 88.1719 34.2812C88.6484 33.9062 89.2148 33.6133 89.8711 33.4023C90.5352 33.1914 91.2773 33.0859 92.0977 33.0859C93.082 33.0859 93.957 33.25 94.7227 33.5781C95.4883 33.9062 96.0898 34.3984 96.5273 35.0547C96.9727 35.7109 97.1953 36.5312 97.1953 37.5156V42.9414C97.1953 43.6367 97.2383 44.207 97.3242 44.6523C97.4102 45.0898 97.5352 45.4727 97.6992 45.8008V46H94.2891C94.125 45.6562 94 45.2266 93.9141 44.7109C93.8359 44.1875 93.7969 43.6641 93.7969 43.1406ZM94.2422 38.2773L94.2656 40.1875H92.3789C91.9336 40.1875 91.5469 40.2383 91.2188 40.3398C90.8906 40.4414 90.6211 40.5859 90.4102 40.7734C90.1992 40.9531 90.043 41.1641 89.9414 41.4062C89.8477 41.6484 89.8008 41.9141 89.8008 42.2031C89.8008 42.4922 89.8672 42.7539 90 42.9883C90.1328 43.2148 90.3242 43.3945 90.5742 43.5273C90.8242 43.6523 91.1172 43.7148 91.4531 43.7148C91.9609 43.7148 92.4023 43.6133 92.7773 43.4102C93.1523 43.207 93.4414 42.957 93.6445 42.6602C93.8555 42.3633 93.9648 42.082 93.9727 41.8164L94.8633 43.2461C94.7383 43.5664 94.5664 43.8984 94.3477 44.2422C94.1367 44.5859 93.8672 44.9102 93.5391 45.2148C93.2109 45.5117 92.8164 45.7578 92.3555 45.9531C91.8945 46.1406 91.3477 46.2344 90.7148 46.2344C89.9102 46.2344 89.1797 46.0742 88.5234 45.7539C87.875 45.4258 87.3594 44.9766 86.9766 44.4062C86.6016 43.8281 86.4141 43.1719 86.4141 42.4375C86.4141 41.7734 86.5391 41.1836 86.7891 40.668C87.0391 40.1523 87.4062 39.7188 87.8906 39.3672C88.3828 39.0078 88.9961 38.7383 89.7305 38.5586C90.4648 38.3711 91.3164 38.2773 92.2852 38.2773H94.2422ZM103.359 28V46H99.9727V28H103.359ZM109.711 28V46H106.324V28H109.711Z" fill="#FDFDFD"/>
</g>
<defs>
<clipPath id="clip0_484_11516">
<rect width="375" height="192" rx="5" fill="white"/>
</clipPath>
</defs>
</svg>
